<svg xmlns="http://www.w3.org/2000/svg" width="114" height="40" viewBox="0 0 114 40" fill="none">
  <rect width="114" height="40" fill="white"/>
  <path d="M35.0299 28.4774C35.0299 27.9854 35.1255 27.4744 35.3358 26.9823C35.527 26.4902 35.8329 26.036 36.1962 25.6575C36.5787 25.2601 37.0376 24.9572 37.5921 24.7112C38.1466 24.4652 38.7585 24.3516 39.4468 24.3516C40.269 24.3516 40.9956 24.522 41.6075 24.8626C42.2194 25.2033 42.6783 25.6386 42.9651 26.1685L41.3972 27.2094C41.3016 26.9823 41.1677 26.812 41.0148 26.6606C40.8618 26.5092 40.6897 26.3956 40.5176 26.301C40.3264 26.2063 40.1543 26.1496 39.9631 26.1117C39.7719 26.0739 39.5807 26.0549 39.4086 26.0549C39.0262 26.0549 38.682 26.1306 38.3952 26.282C38.1083 26.4334 37.8598 26.6227 37.6686 26.8498C37.4773 27.0769 37.3435 27.3419 37.2479 27.6447C37.1523 27.9475 37.114 28.2503 37.114 28.5531C37.114 28.8749 37.1714 29.1966 37.267 29.4994C37.3817 29.8022 37.5347 30.0672 37.7259 30.3132C37.9363 30.5403 38.1657 30.7296 38.4525 30.8621C38.7393 30.9945 39.0644 31.0702 39.4086 31.0702C39.5998 31.0702 39.7719 31.0513 39.9822 31.0135C40.1734 30.9756 40.3646 30.8999 40.5367 30.8053C40.7088 30.7107 40.8809 30.5971 41.0339 30.4457C41.1868 30.2943 41.3016 30.124 41.3972 29.9158L43.0607 30.8431C42.9269 31.1459 42.7357 31.4298 42.468 31.6569C42.2003 31.903 41.9134 32.0922 41.5693 32.2626C41.2251 32.4329 40.8618 32.5464 40.4985 32.6411C40.1161 32.7357 39.7528 32.7736 39.3703 32.7736C38.7393 32.7736 38.1466 32.66 37.6112 32.414C37.0758 32.1679 36.6169 31.8462 36.2345 31.4298C35.8521 31.0324 35.5461 30.5592 35.3358 30.0483C35.1255 29.5373 35.0299 29.0073 35.0299 28.4774Z" fill="#194298"/>
  <path d="M49.103 32.7736C48.4529 32.7736 47.8601 32.66 47.3056 32.414C46.7702 32.1679 46.3113 31.8462 45.9289 31.4677C45.5465 31.0702 45.2596 30.616 45.0493 30.105C44.839 29.594 44.7242 29.0831 44.7242 28.5342C44.7242 27.9854 44.839 27.4554 45.0493 26.9444C45.2596 26.4335 45.5656 25.9982 45.9671 25.6007C46.3687 25.2222 46.8276 24.9005 47.363 24.6734C47.8983 24.4463 48.4911 24.3327 49.1221 24.3327C49.7722 24.3327 50.365 24.4463 50.9195 24.6923C51.4549 24.9383 51.9138 25.2601 52.2962 25.6575C52.6786 26.0549 52.9654 26.5092 53.1758 27.0202C53.3861 27.5311 53.4817 28.0421 53.4817 28.5721C53.4817 29.1209 53.367 29.6508 53.1566 30.1618C52.9463 30.6728 52.6404 31.1081 52.2388 31.5055C51.8564 31.8841 51.3784 32.2058 50.843 32.4329C50.3267 32.66 49.734 32.7736 49.103 32.7736ZM46.7893 28.5531C46.7893 28.8749 46.8467 29.1777 46.9423 29.4805C47.0379 29.7833 47.1909 30.0483 47.3821 30.2754C47.5733 30.5025 47.8219 30.6917 48.1087 30.8431C48.3955 30.9756 48.7205 31.0513 49.103 31.0513C49.4854 31.0513 49.8296 30.9756 50.1164 30.8242C50.4032 30.6728 50.6518 30.4836 50.843 30.2375C51.0342 29.9915 51.1681 29.7265 51.2637 29.4237C51.3593 29.1209 51.3975 28.8181 51.3975 28.4964C51.3975 28.1746 51.3401 27.8718 51.2445 27.569C51.1489 27.2662 50.996 27.0012 50.8048 26.7741C50.6135 26.547 50.365 26.3578 50.0781 26.2253C49.7913 26.0928 49.4663 26.0171 49.0839 26.0171C48.7014 26.0171 48.3572 26.0928 48.0704 26.2253C47.7836 26.3767 47.535 26.5659 47.3438 26.793C47.1526 27.0202 46.9996 27.2851 46.904 27.5879C46.8467 27.9475 46.7893 28.2503 46.7893 28.5531Z" fill="#194298"/>
  <path d="M62.8702 32.7168V27.7204L60.9581 31.3541H59.8682L57.956 27.7204V32.7168H55.9101V24.3895H58.1281L60.4035 28.7424L62.7172 24.3895H64.897V32.7168H62.8702Z" fill="#194298"/>
  <path d="M74.8018 32.7168V27.7204L72.8896 31.3541H71.7806L69.8685 27.7204V32.7168H67.8417V24.3895H70.0406L72.3351 28.7424L74.6297 24.3895H76.8286V32.7168H74.8018Z" fill="#194298"/>
  <path d="M85.9685 31.0135V32.7168H79.7541V24.3895H85.8538V26.0739H81.8001V27.7015H85.2801V29.2534H81.8001V31.0135H85.9685Z" fill="#194298"/>
  <path d="M88.4351 32.7168V24.4084H92.4123C92.8329 24.4084 93.2154 24.4841 93.5595 24.6545C93.9037 24.8248 94.2097 25.033 94.4774 25.298C94.7259 25.5629 94.9363 25.8657 95.0892 26.2064C95.2422 26.5471 95.2996 26.8877 95.2996 27.2284C95.2996 27.4933 95.2613 27.7394 95.204 27.9665C95.1466 28.2125 95.051 28.4207 94.9172 28.6478C94.8024 28.856 94.6495 29.0452 94.4582 29.2156C94.2862 29.3859 94.0758 29.5184 93.8464 29.6509L95.7776 32.7358H93.4831L91.8004 30.0483H90.4811V32.7358H88.4351V32.7168ZM90.4811 28.345H92.3358C92.5844 28.345 92.7756 28.2314 92.9477 28.0233C93.1198 27.8151 93.2154 27.5312 93.2154 27.1905C93.2154 26.8499 93.1198 26.566 92.9094 26.3767C92.7182 26.1685 92.4888 26.0739 92.2593 26.0739H90.4619V28.345H90.4811Z" fill="#194298"/>
  <path d="M97.4985 28.4774C97.4985 27.9854 97.5941 27.4744 97.8044 26.9823C97.9956 26.4902 98.3016 26.036 98.6649 25.6575C99.0473 25.2601 99.5062 24.9572 100.061 24.7112C100.615 24.4652 101.227 24.3516 101.915 24.3516C102.738 24.3516 103.464 24.522 104.076 24.8626C104.688 25.2033 105.147 25.6386 105.434 26.1685L103.866 27.2094C103.77 26.9823 103.636 26.812 103.483 26.6606C103.33 26.5092 103.158 26.3956 102.986 26.301C102.795 26.2063 102.623 26.1496 102.432 26.1117C102.241 26.0739 102.049 26.0549 101.877 26.0549C101.495 26.0549 101.151 26.1306 100.864 26.282C100.577 26.4334 100.328 26.6227 100.137 26.8498C99.946 27.0769 99.8121 27.3419 99.7165 27.6447C99.6209 27.9475 99.5827 28.2503 99.5827 28.5531C99.5827 28.8749 99.64 29.1966 99.7356 29.4994C99.8504 29.8022 100.003 30.0672 100.195 30.3132C100.405 30.5403 100.634 30.7296 100.921 30.8621C101.208 30.9945 101.533 31.0702 101.877 31.0702C102.068 31.0702 102.241 31.0513 102.451 31.0135C102.642 30.9756 102.833 30.8999 103.005 30.8053C103.177 30.7107 103.35 30.5971 103.502 30.4457C103.655 30.2943 103.77 30.124 103.866 29.9158L105.529 30.8431C105.395 31.1459 105.204 31.4298 104.937 31.6569C104.669 31.903 104.382 32.0922 104.038 32.2626C103.694 32.4329 103.33 32.5464 102.967 32.6411C102.585 32.7357 102.221 32.7736 101.839 32.7736C101.208 32.7736 100.615 32.66 100.08 32.414C99.5444 32.1679 99.0855 31.8462 98.7031 31.4298C98.3207 31.0324 98.0147 30.5592 97.8044 30.0483C97.6132 29.5373 97.4985 29.0073 97.4985 28.4774Z" fill="#194298"/>
  <path d="M114 31.0135V32.7168H107.786V24.3895H113.885V26.0739H109.832V27.7015H113.312V29.2534H109.832V31.0135H114Z" fill="#194298"/>
  <path d="M35.0299 21.4749V13.1666H38.7967C39.2174 13.1666 39.5998 13.2423 39.9631 13.4126C40.3073 13.5829 40.6132 13.7911 40.8618 14.0561C41.1104 14.321 41.3207 14.6238 41.4545 14.9645C41.6075 15.3052 41.6649 15.6458 41.6649 15.9865C41.6649 16.3461 41.5884 16.7057 41.4545 17.0463C41.3207 17.387 41.1295 17.6898 40.8809 17.9548C40.6323 18.2197 40.3455 18.4279 40.0013 18.5793C39.6572 18.7307 39.2747 18.8064 38.8541 18.8064H37.0567V21.4939H35.0299V21.4749ZM37.0567 17.122H38.7202C38.9688 17.122 39.16 17.0274 39.3321 16.8192C39.5042 16.63 39.5998 16.3461 39.5998 15.9676C39.5998 15.7783 39.5807 15.608 39.5233 15.4566C39.4659 15.3241 39.3895 15.1916 39.313 15.097C39.2174 15.0024 39.1218 14.9267 39.007 14.8888C38.8923 14.851 38.7776 14.832 38.6629 14.832H37.0758V17.122H37.0567Z" fill="#194298"/>
  <path d="M46.0436 13.1666H43.9977V21.4749H46.0436V13.1666Z" fill="#194298"/>
  <path d="M50.2502 13.1666L52.1815 16.0243L54.0936 13.1666H56.2925L53.2523 17.387L56.1969 21.4749H53.998L52.1815 18.7307L50.3458 21.4749H48.1469L51.0916 17.387L48.0322 13.1666H50.2502Z" fill="#194298"/>
  <path d="M60.3462 13.1666H58.3002V21.4749H60.3462V13.1666Z" fill="#194298"/>
  <path d="M9.56055 8.90828C9.56055 6.03157 11.9124 3.70371 14.8189 3.70371C17.7253 3.70371 20.0772 6.03157 20.0772 8.90828V11.4822H22.9453V8.94613C22.9453 4.49859 19.3123 0.90271 14.8189 0.90271C10.3254 0.90271 6.69239 4.49859 6.69239 8.94613V11.4822H9.56055V8.90828Z" fill="#194298"/>
  <path d="M22.9071 11.4254H20.058H9.52231H6.65414H1.10902L0 39.1326H7.72492V34.2309H29.5612L28.4522 11.4254H22.9071Z" fill="#DD4B39"/>
  <path d="M9.57967 13.6776H6.69239V16.5353H9.57967V13.6776Z" fill="white"/>
  <path d="M22.9644 13.6776H20.0772V16.5353H22.9644V13.6776Z" fill="white"/>
</svg>