<svg xmlns="http://www.w3.org/2000/svg" width="24" height="24" viewBox="0 0 24 24" fill="none">
  <path fill-rule="evenodd" clip-rule="evenodd" d="M13.1389 0.98838C12.4836 0.426646 11.5165 0.426646 10.8612 0.988381L8.29283 3.18982C8.24752 3.22865 8.18981 3.25 8.13013 3.25L4.96584 3.25C3.99934 3.25 3.21584 4.0335 3.21584 5L3.21584 8.13329C3.21584 8.19248 3.19484 8.24975 3.15657 8.29491L0.975662 10.8687C0.422499 11.5215 0.422497 12.4785 0.975662 13.1313L3.15657 15.7051C3.19483 15.7502 3.21584 15.8075 3.21584 15.8667L3.21584 19C3.21584 19.9665 3.99934 20.75 4.96584 20.75L8.13013 20.75C8.18981 20.75 8.24752 20.7713 8.29283 20.8102L10.8612 23.0116C11.5165 23.5734 12.4836 23.5734 13.1389 23.0116L15.7073 20.8102C15.7526 20.7713 15.8103 20.75 15.87 20.75L19.0001 20.75C19.9666 20.75 20.7501 19.9665 20.7501 19L20.7501 15.8699C20.7501 15.8102 20.7714 15.7525 20.8102 15.7072L23.0117 13.1389C23.5734 12.4835 23.5734 11.5165 23.0117 10.8611L20.8102 8.29278C20.7714 8.24746 20.7501 8.18976 20.7501 8.13008L20.7501 5C20.7501 4.0335 19.9666 3.25 19.0001 3.25L15.87 3.25C15.8103 3.25 15.7526 3.22865 15.7073 3.18982L13.1389 0.98838ZM11.8374 2.12727C11.931 2.04702 12.0691 2.04702 12.1627 2.12727L14.7311 4.3287C15.0483 4.60057 15.4522 4.75 15.87 4.75L19.0001 4.75C19.1381 4.75 19.2501 4.86193 19.2501 5L19.2501 8.13008C19.2501 8.54782 19.3995 8.95179 19.6714 9.26896L21.8728 11.8373C21.953 11.9309 21.953 12.0691 21.8728 12.1627L19.6714 14.731C19.3995 15.0482 19.2501 15.4522 19.2501 15.8699L19.2501 19C19.2501 19.1381 19.1381 19.25 19.0001 19.25L15.87 19.25C15.4522 19.25 15.0483 19.3994 14.7311 19.6713L12.1628 21.8727C12.0691 21.953 11.931 21.953 11.8374 21.8727L9.26901 19.6713C8.95184 19.3994 8.54787 19.25 8.13013 19.25L4.96584 19.25C4.82777 19.25 4.71584 19.1381 4.71584 19L4.71584 15.8667C4.71584 15.4524 4.56882 15.0515 4.30096 14.7354L2.12006 12.1616C2.04103 12.0684 2.04103 11.9316 2.12006 11.8384L4.30096 9.26463C4.56883 8.94852 4.71584 8.54763 4.71584 8.13329L4.71584 5C4.71584 4.86193 4.82777 4.75 4.96584 4.75L8.13013 4.75C8.54787 4.75 8.95184 4.60057 9.26901 4.3287L11.8374 2.12727ZM16.5307 9.53033C16.8236 9.23744 16.8236 8.76256 16.5307 8.46967C16.2378 8.17678 15.7629 8.17678 15.47 8.46967L11.0004 12.9393L9.53071 11.4697C9.23781 11.1768 8.76294 11.1768 8.47005 11.4697C8.17715 11.7626 8.17715 12.2374 8.47005 12.5303L10.47 14.5303C10.6107 14.671 10.8015 14.75 11.0004 14.75C11.1993 14.75 11.3901 14.671 11.5307 14.5303L16.5307 9.53033Z" fill="#DD4B39"/>
</svg>