<svg xmlns="http://www.w3.org/2000/svg" width="24" height="24" viewBox="0 0 24 24" fill="none">
  <path fill-rule="evenodd" clip-rule="evenodd" d="M6.7679 3.25009L6.8 3.25009H17.2L17.2321 3.25009C18.0449 3.25008 18.7006 3.25008 19.2315 3.29346C19.7781 3.33812 20.2582 3.43248 20.7025 3.65882C21.4081 4.01834 21.9817 4.59202 22.3413 5.29763C22.5676 5.74185 22.662 6.22199 22.7066 6.76862C22.7343 7.10698 22.7443 7.49598 22.7479 7.94405C22.7493 7.96255 22.75 7.98124 22.75 8.00009C22.75 8.01533 22.7495 8.03046 22.7486 8.04547C22.75 8.27074 22.75 8.51052 22.75 8.76582V8.76797V8.80009V15.2001V15.2322C22.75 16.045 22.75 16.7007 22.7066 17.2316C22.662 17.7782 22.5676 18.2583 22.3413 18.7026C21.9817 19.4082 21.4081 19.9818 20.7025 20.3414C20.2582 20.5677 19.7781 20.6621 19.2315 20.7067C18.7006 20.7501 18.045 20.7501 17.2321 20.7501H17.2H6.8H6.76788C5.95505 20.7501 5.29944 20.7501 4.76853 20.7067C4.2219 20.6621 3.74175 20.5677 3.29754 20.3414C2.59193 19.9818 2.01825 19.4082 1.65873 18.7026C1.43239 18.2583 1.33803 17.7782 1.29336 17.2316C1.24999 16.7007 1.24999 16.045 1.25 15.2322V15.2001V8.80009V8.76799C1.25 8.51188 1.25 8.27138 1.25135 8.04547C1.25045 8.03046 1.25 8.01533 1.25 8.00009C1.25 7.98124 1.2507 7.96255 1.25206 7.94405C1.2557 7.49598 1.26572 7.10698 1.29336 6.76862C1.33803 6.22199 1.43239 5.74185 1.65873 5.29763C2.01825 4.59202 2.59193 4.01834 3.29754 3.65882C3.74175 3.43248 4.2219 3.33812 4.76853 3.29346C5.29944 3.25008 5.95506 3.25008 6.7679 3.25009ZM21.2116 6.89077C21.2207 7.00231 21.2277 7.12149 21.233 7.25009H2.76702C2.77232 7.12149 2.77927 7.00231 2.78838 6.89077C2.82547 6.4369 2.8946 6.17613 2.99524 5.97861C3.21095 5.55525 3.55516 5.21104 3.97852 4.99533C4.17604 4.89469 4.4368 4.82556 4.89068 4.78847C5.35331 4.75068 5.94755 4.75009 6.8 4.75009H17.2C18.0525 4.75009 18.6467 4.75068 19.1093 4.78847C19.5632 4.82556 19.824 4.89469 20.0215 4.99533C20.4448 5.21104 20.789 5.55525 21.0048 5.97861C21.1054 6.17613 21.1745 6.4369 21.2116 6.89077ZM2.75 8.80009L2.75 8.75009H21.25L21.25 8.80009V15.2001C21.25 16.0525 21.2494 16.6468 21.2116 17.1094C21.1745 17.5633 21.1054 17.8241 21.0048 18.0216C20.789 18.4449 20.4448 18.7891 20.0215 19.0049C19.824 19.1055 19.5632 19.1746 19.1093 19.2117C18.6467 19.2495 18.0525 19.2501 17.2 19.2501H6.8C5.94755 19.2501 5.35331 19.2495 4.89068 19.2117C4.4368 19.1746 4.17604 19.1055 3.97852 19.0049C3.55516 18.7891 3.21095 18.4449 2.99524 18.0216C2.8946 17.8241 2.82547 17.5633 2.78838 17.1094C2.75058 16.6468 2.75 16.0525 2.75 15.2001V8.80009ZM6 11.2501C5.58579 11.2501 5.25 11.5859 5.25 12.0001C5.25 12.4143 5.58579 12.7501 6 12.7501H10C10.4142 12.7501 10.75 12.4143 10.75 12.0001C10.75 11.5859 10.4142 11.2501 10 11.2501H6Z" fill="#DD4B39"/>
</svg>