<svg xmlns="http://www.w3.org/2000/svg" width="18" height="18" viewBox="0 0 18 18" fill="none">
  <path fill-rule="evenodd" clip-rule="evenodd" d="M2.4375 3C2.4375 2.68934 2.68934 2.4375 3 2.4375H6C6.26813 2.4375 6.49899 2.62676 6.55158 2.88968L7.30158 6.63968C7.33846 6.82411 7.28074 7.01476 7.14775 7.14775L5.0022 9.2933C5.43888 10.0903 5.96919 10.7987 6.58525 11.4148C7.2013 12.0308 7.90971 12.5611 8.7067 12.9978L10.8523 10.8523C10.9852 10.7193 11.1759 10.6615 11.3603 10.6984L15.1103 11.4484C15.3732 11.501 15.5625 11.7319 15.5625 12V12.0059V12.0117V12.0176V12.0234V12.0293V12.0352V12.041V12.0469V12.0527V12.0586V12.0645V12.0703V12.0762V12.082V12.0879V12.0938V12.0996V12.1055V12.1113V12.1172V12.123V12.1289V12.1348V12.1406V12.1465V12.1523V12.1582V12.1641V12.1699V12.1758V12.1816V12.1875V12.1934V12.1992V12.2051V12.2109V12.2168V12.2227V12.2285V12.2344V12.2402V12.2461V12.252V12.2578V12.2637V12.2695V12.2754V12.2812V12.2871V12.293V12.2988V12.3047V12.3105V12.3164V12.3223V12.3281V12.334V12.3398V12.3457V12.3516V12.3574V12.3633V12.3691V12.375V12.3809V12.3867V12.3926V12.3984V12.4043V12.4102V12.416V12.4219V12.4277V12.4336V12.4395V12.4453V12.4512V12.457V12.4629V12.4688V12.4746V12.4805V12.4863V12.4922V12.498V12.5039V12.5098V12.5156V12.5215V12.5273V12.5332V12.5391V12.5449V12.5508V12.5566V12.5625V12.5684V12.5742V12.5801V12.5859V12.5918V12.5977V12.6035V12.6094V12.6152V12.6211V12.627V12.6328V12.6387V12.6445V12.6504V12.6562V12.6621V12.668V12.6738V12.6797V12.6855V12.6914V12.6973V12.7031V12.709V12.7148V12.7207V12.7266V12.7324V12.7383V12.7441V12.75V12.7559V12.7617V12.7676V12.7734V12.7793V12.7852V12.791V12.7969V12.8027V12.8086V12.8145V12.8203V12.8262V12.832V12.8379V12.8438V12.8496V12.8555V12.8613V12.8672V12.873V12.8789V12.8848V12.8906V12.8965V12.9023V12.9082V12.9141V12.9199V12.9258V12.9316V12.9375V12.9434V12.9492V12.9551V12.9609V12.9668V12.9727V12.9785V12.9844V12.9902V12.9961V13.002V13.0078V13.0137V13.0195V13.0254V13.0312V13.0371V13.043V13.0488V13.0547V13.0605V13.0664V13.0723V13.0781V13.084V13.0898V13.0957V13.1016V13.1074V13.1133V13.1191V13.125V13.1309V13.1367V13.1426V13.1484V13.1543V13.1602V13.166V13.1719V13.1777V13.1836V13.1895V13.1953V13.2012V13.207V13.2129V13.2188V13.2246V13.2305V13.2363V13.2422V13.248V13.2539V13.2598V13.2656V13.2715V13.2773V13.2832V13.2891V13.2949V13.3008V13.3066V13.3125V13.3184V13.3242V13.3301V13.3359V13.3418V13.3477V13.3535V13.3594V13.3652V13.3711V13.377V13.3828V13.3887V13.3945V13.4004V13.4062V13.4121V13.418V13.4238V13.4297V13.4355V13.4414V13.4473V13.4531V13.459V13.4648V13.4707V13.4766V13.4824V13.4883V13.4941V13.5V13.5059V13.5117V13.5176V13.5234V13.5293V13.5352V13.541V13.5469V13.5527V13.5586V13.5645V13.5703V13.5762V13.582V13.5879V13.5938V13.5996V13.6055V13.6113V13.6172V13.623V13.6289V13.6348V13.6406V13.6465V13.6523V13.6582V13.6641V13.6699V13.6758V13.6816V13.6875V13.6934V13.6992V13.7051V13.7109V13.7168V13.7227V13.7285V13.7344V13.7402V13.7461V13.752V13.7578V13.7637V13.7695V13.7754V13.7812V13.7871V13.793V13.7988V13.8047V13.8105V13.8164V13.8223V13.8281V13.834V13.8398V13.8457V13.8516V13.8574V13.8633V13.8691V13.875V13.8809V13.8867V13.8926V13.8984V13.9043V13.9102V13.916V13.9219V13.9277V13.9336V13.9395V13.9453V13.9512V13.957V13.9629V13.9688V13.9746V13.9805V13.9863V13.9922V13.998V14.0039V14.0098V14.0156V14.0215V14.0273V14.0332V14.0391V14.0449V14.0508V14.0566V14.0625V14.0684V14.0742V14.0801V14.0859V14.0918V14.0977V14.1035V14.1094V14.1152V14.1211V14.127V14.1328V14.1387V14.1445V14.1504V14.1562V14.1621V14.168V14.1738V14.1797V14.1855V14.1914V14.1973V14.2031V14.209V14.2148V14.2207V14.2266V14.2324V14.2383V14.2441V14.25V14.2559V14.2617V14.2676V14.2734V14.2793V14.2852V14.291V14.2969V14.3027V14.3086V14.3145V14.3203V14.3262V14.332V14.3379V14.3438V14.3496V14.3555V14.3613V14.3672V14.373V14.3789V14.3848V14.3906V14.3965V14.4023V14.4082V14.4141V14.4199V14.4258V14.4316V14.4375V14.4434V14.4492V14.4551V14.4609V14.4668V14.4727V14.4785V14.4844V14.4902V14.4961V14.502V14.5078V14.5137V14.5195V14.5254V14.5312V14.5371V14.543V14.5488V14.5547V14.5605V14.5664V14.5723V14.5781V14.584V14.5898V14.5957V14.6016V14.6074V14.6133V14.6191V14.625V14.6309V14.6367V14.6426V14.6484V14.6543V14.6602V14.666V14.6719V14.6777V14.6836V14.6895V14.6953V14.7012V14.707V14.7129V14.7188V14.7246V14.7305V14.7363V14.7422V14.748V14.7539V14.7598V14.7656V14.7715V14.7773V14.7832V14.7891V14.7949V14.8008V14.8066V14.8125V14.8184V14.8242V14.8301V14.8359V14.8418V14.8477V14.8535V14.8594V14.8652V14.8711V14.877V14.8828V14.8887V14.8945V14.9004V14.9062V14.9121V14.918V14.9238V14.9297V14.9355V14.9414V14.9473V14.9531V14.959V14.9648V14.9707V14.9766V14.9824V14.9883V14.9941V15C15.5625 15.3107 15.3107 15.5625 15 15.5625C11.1372 15.5625 7.98096 14.4015 5.78975 12.2102C3.59855 10.019 2.4375 6.86279 2.4375 3ZM9.78599 13.5095C11.1337 14.057 12.6888 14.3731 14.4375 14.4287V14.4258V14.4199V14.4141V14.4082V14.4023V14.3965V14.3906V14.3848V14.3789V14.373V14.3672V14.3613V14.3555V14.3496V14.3438V14.3379V14.332V14.3262V14.3203V14.3145V14.3086V14.3027V14.2969V14.291V14.2852V14.2793V14.2734V14.2676V14.2617V14.2559V14.25V14.2441V14.2383V14.2324V14.2266V14.2207V14.2148V14.209V14.2031V14.1973V14.1914V14.1855V14.1797V14.1738V14.168V14.1621V14.1562V14.1504V14.1445V14.1387V14.1328V14.127V14.1211V14.1152V14.1094V14.1035V14.0977V14.0918V14.0859V14.0801V14.0742V14.0684V14.0625V14.0566V14.0508V14.0449V14.0391V14.0332V14.0273V14.0215V14.0156V14.0098V14.0039V13.998V13.9922V13.9863V13.9805V13.9746V13.9688V13.9629V13.957V13.9512V13.9453V13.9395V13.9336V13.9277V13.9219V13.916V13.9102V13.9043V13.8984V13.8926V13.8867V13.8809V13.875V13.8691V13.8633V13.8574V13.8516V13.8457V13.8398V13.834V13.8281V13.8223V13.8164V13.8105V13.8047V13.7988V13.793V13.7871V13.7812V13.7754V13.7695V13.7637V13.7578V13.752V13.7461V13.7402V13.7344V13.7285V13.7227V13.7168V13.7109V13.7051V13.6992V13.6934V13.6875V13.6816V13.6758V13.6699V13.6641V13.6582V13.6523V13.6465V13.6406V13.6348V13.6289V13.623V13.6172V13.6113V13.6055V13.5996V13.5938V13.5879V13.582V13.5762V13.5703V13.5645V13.5586V13.5527V13.5469V13.541V13.5352V13.5293V13.5234V13.5176V13.5117V13.5059V13.5V13.4941V13.4883V13.4824V13.4766V13.4707V13.4648V13.459V13.4531V13.4473V13.4414V13.4355V13.4297V13.4238V13.418V13.4121V13.4062V13.4004V13.3945V13.3887V13.3828V13.377V13.3711V13.3652V13.3594V13.3535V13.3477V13.3418V13.3359V13.3301V13.3242V13.3184V13.3125V13.3066V13.3008V13.2949V13.2891V13.2832V13.2773V13.2715V13.2656V13.2598V13.2539V13.248V13.2422V13.2363V13.2305V13.2246V13.2188V13.2129V13.207V13.2012V13.1953V13.1895V13.1836V13.1777V13.1719V13.166V13.1602V13.1543V13.1484V13.1426V13.1367V13.1309V13.125V13.1191V13.1133V13.1074V13.1016V13.0957V13.0898V13.084V13.0781V13.0723V13.0664V13.0605V13.0547V13.0488V13.043V13.0371V13.0312V13.0254V13.0195V13.0137V13.0078V13.002V12.9961V12.9902V12.9844V12.9785V12.9727V12.9668V12.9609V12.9551V12.9492V12.9434V12.9375V12.9316V12.9258V12.9199V12.9141V12.9082V12.9023V12.8965V12.8906V12.8848V12.8789V12.873V12.8672V12.8613V12.8555V12.8496V12.8438V12.8379V12.832V12.8262V12.8203V12.8145V12.8086V12.8027V12.7969V12.791V12.7852V12.7793V12.7734V12.7676V12.7617V12.7559V12.75V12.7441V12.7383V12.7324V12.7266V12.7207V12.7148V12.709V12.7031V12.6973V12.6914V12.6855V12.6797V12.6738V12.668V12.6621V12.6562V12.6504V12.6445V12.6387V12.6328V12.627V12.6211V12.6152V12.6094V12.6035V12.5977V12.5918V12.5859V12.5801V12.5742V12.5684V12.5625V12.5566V12.5508V12.5449V12.5391V12.5332V12.5273V12.5215V12.5156V12.5098V12.5039V12.498V12.4922V12.4863V12.4805V12.4746V12.4688V12.4629V12.4611L11.4349 11.8606L9.78599 13.5095ZM4.4905 8.21401L6.13938 6.56512L5.53886 3.5625H3.57135C3.6269 5.31117 3.94297 6.8663 4.4905 8.21401Z" fill="#0D111B"/>
</svg>