<svg xmlns="http://www.w3.org/2000/svg" width="21" height="22" viewBox="0 0 21 22" fill="none">
  <path d="M16.5 7C18.1569 7 19.5 5.65685 19.5 4C19.5 2.34315 18.1569 1 16.5 1C14.8431 1 13.5 2.34315 13.5 4C13.5 5.65685 14.8431 7 16.5 7Z" stroke="#394357" stroke-width="1.5" stroke-linecap="round" stroke-linejoin="round"/>
  <path d="M4.5 14C6.15685 14 7.5 12.6569 7.5 11C7.5 9.34315 6.15685 8 4.5 8C2.84315 8 1.5 9.34315 1.5 11C1.5 12.6569 2.84315 14 4.5 14Z" stroke="#394357" stroke-width="1.5" stroke-linecap="round" stroke-linejoin="round"/>
  <path d="M16.5 21C18.1569 21 19.5 19.6569 19.5 18C19.5 16.3431 18.1569 15 16.5 15C14.8431 15 13.5 16.3431 13.5 18C13.5 19.6569 14.8431 21 16.5 21Z" stroke="#394357" stroke-width="1.5" stroke-linecap="round" stroke-linejoin="round"/>
  <path d="M7.09009 12.51L13.9201 16.49" stroke="#394357" stroke-width="1.5" stroke-linecap="round" stroke-linejoin="round"/>
  <path d="M13.9101 5.51001L7.09009 9.49001" stroke="#394357" stroke-width="1.5" stroke-linecap="round" stroke-linejoin="round"/>
</svg>