<svg width="185" height="242" viewBox="0 0 185 242" fill="none" xmlns="http://www.w3.org/2000/svg">
<path opacity="0.1" d="M92.3665 242.001C143.379 242.001 184.733 240.392 184.733 238.407C184.733 236.422 143.379 234.813 92.3665 234.813C41.3539 234.813 0 236.422 0 238.407C0 240.392 41.3539 242.001 92.3665 242.001Z" fill="#0D111B"/>
<path d="M106.303 222.747L105.663 238.369H88.8887L95.7122 232.711L95.4634 219.046" fill="#FCE5D0"/>
<path d="M131.857 220.861L135.518 238.369H149.449L145.22 232.106L142.804 219.046" fill="#FCE5D0"/>
<path d="M131.357 113.358H94.9289L93.8271 224.671H107.403L114.333 145.101L131.108 224.493H145.217L131.357 113.358Z" fill="#DD4B39"/>
<path d="M95.6411 229.684H106.019L105.663 238.367H88.8887L95.7122 232.709L95.6411 229.684Z" fill="#0D111B"/>
<path d="M135.509 238.367L133.697 229.684H144.785L145.211 232.104L149.44 238.367H135.509Z" fill="#0D111B"/>
<path d="M134.236 224.562L134.947 224.384L122.508 150.614L121.833 150.792L134.236 224.562Z" fill="#153780"/>
<path d="M143.581 230.789H140.667V231.144H143.581V230.789Z" fill="white"/>
<path d="M143.688 231.93H141.343V232.286H143.688V231.93Z" fill="white"/>
<path d="M144.681 233.14H142.051V233.496H144.681V233.14Z" fill="white"/>
<path d="M100.653 230.789H97.7388V231.144H100.653V230.789Z" fill="white"/>
<path d="M99.9044 231.93H97.5588V232.286H99.9044V231.93Z" fill="white"/>
<path d="M99.221 233.14H96.5911V233.496H99.221V233.14Z" fill="white"/>
<path d="M88.7343 89.6549L85.9978 99.0852C85.0738 102.324 86.8863 105.74 90.0848 106.736C93.6032 107.839 97.2637 105.669 98.0456 102.074L99.8226 93.605" fill="#FCE5D0"/>
<path d="M94.9971 113.533L95.9566 73.9615C96.0277 71.5061 97.8047 69.4421 100.221 69.0506L113.122 66.8799L124.424 68.5168C127.835 69.0151 128.12 70.7944 128.511 74.2106L131.283 113.498H94.9971V113.533Z" fill="#0D111B"/>
<path d="M102.746 68.6966L98.3744 69.4083C94.9982 69.9421 92.2972 72.4331 91.4443 75.7427L87.7126 90.4397L102.284 93.2866L102.746 68.6966Z" fill="#0D111B"/>
<path d="M95.709 88.3387L95.5313 91.9684L87.7126 90.4382L88.3524 86.7373L95.709 88.3387Z" fill="#0D111B"/>
<path d="M109.108 62.5364L108.54 69.3333C108.326 71.8599 110.21 74.0307 112.733 74.2442C115.399 74.4577 117.638 72.3226 117.602 69.6536L117.46 59.6539" fill="#FCE5D0"/>
<path d="M95.1762 92.2529L87.9262 67.8408L80.8894 69.8692L85.8649 101.826L94.11 95.4912C95.1051 94.7439 95.5316 93.4628 95.1762 92.2529Z" fill="#FCE5D0"/>
<path d="M95.4873 79.9015L95.2141 91.1078L95.927 91.1252L96.2002 79.9189L95.4873 79.9015Z" fill="white"/>
<path d="M84.52 70.5456H89.922C90.3129 70.5456 90.6327 70.2253 90.6327 69.8338V58.6598C90.6327 58.2683 90.3129 57.9481 89.922 57.9481H84.5555C84.1646 57.9481 83.8447 58.2683 83.8447 58.6598V69.8338C83.8092 70.2253 84.1291 70.5456 84.52 70.5456Z" fill="#191919"/>
<path d="M83.8042 70.5456H89.2061C89.5971 70.5456 89.9169 70.2253 89.9169 69.8338V58.6598C89.9169 58.2683 89.5971 57.9481 89.2061 57.9481H83.8397C83.4488 57.9481 83.1289 58.2683 83.1289 58.6598V69.8338C83.0934 70.2253 83.4132 70.5456 83.8042 70.5456Z" fill="#394357"/>
<path d="M112.305 65.5651H110.137C108.146 65.5651 106.618 63.8926 106.76 61.8997L107.258 54.6757L117.316 54.3555L117.493 65.0669" fill="#FCE5D0"/>
<path d="M110.138 65.5634C110.138 65.5634 113.55 65.8837 115.505 63.8553C115.505 63.8553 115.398 68.268 108.646 67.9121L108.859 65.3499C108.895 65.3143 109.463 65.5278 110.138 65.5634Z" fill="#DD4B39" fill-opacity="0.4"/>
<path d="M116.43 58.23C116.43 58.23 115.861 57.3759 115.755 56.166C115.755 56.166 111.739 57.8741 107.225 55.5966L107.119 56.9133C107.119 56.9133 106.159 55.5966 106.763 53.07C107.367 50.4011 119.628 49.0844 117.958 57.625L116.43 58.23Z" fill="#0D111B"/>
<path d="M117.244 60.6512C118.166 60.6512 118.914 59.9024 118.914 58.9787C118.914 58.055 118.166 57.3062 117.244 57.3062C116.321 57.3062 115.573 58.055 115.573 58.9787C115.573 59.9024 116.321 60.6512 117.244 60.6512Z" fill="#FCE5D0"/>
<path d="M83.8042 70.5456H89.2061C89.5971 70.5456 89.9169 70.2253 89.9169 69.8338V58.6598C89.9169 58.2683 89.5971 57.9481 89.2061 57.9481H83.8397C83.4488 57.9481 83.1289 58.2683 83.1289 58.6598V69.8338C83.0934 70.2253 83.4132 70.5456 83.8042 70.5456Z" fill="#0D111B"/>
<path d="M83.1017 69.2283L84.8787 67.7337L85.5184 67.449C85.9449 67.2711 86.1937 66.8441 86.1937 66.417L86.0515 63.8904C86.016 63.2143 85.625 62.6449 85.0209 62.3602L83.4216 61.6129C83.1017 61.4705 82.7108 61.5061 82.391 61.6841L80.7206 62.7872C80.1164 63.1787 79.8321 63.8904 79.9387 64.6021L80.8983 69.8333L83.1017 69.2283Z" fill="#FCE5D0"/>
<path d="M111.842 62.4315C111.842 62.4315 110.385 62.9653 109.39 62.8941C109.39 62.8941 109.745 63.8905 110.918 63.8193C112.126 63.7837 111.842 62.4315 111.842 62.4315Z" fill="white"/>
<path d="M129.404 92.6803L127.556 100.758C126.774 104.175 123.291 106.239 119.951 105.242C116.859 104.353 115.011 101.185 115.757 98.0182L117.712 89.6199" fill="#FCE5D0"/>
<path d="M122.824 68.3387L127.053 69.0148C131.211 69.691 133.983 73.641 133.201 77.769L130.074 94.4233L117.244 91.1138L122.824 68.3387Z" fill="#0D111B"/>
<path d="M130.074 94.4231L117.244 91.1136L118.097 87.6262L130.714 91.0069L130.074 94.4231Z" fill="#0D111B"/>
<path d="M110.82 66.0249C111.246 65.0285 113.059 63.9253 114.516 63.9253C116.648 63.9609 116.328 65.7046 116.328 65.7046C116.328 65.7046 117.252 65.2064 117.252 66.274C117.288 67.6618 117.466 68.338 117.466 68.338L125.675 94.2447L115.724 100.757L110.82 69.8326C110.82 69.8682 110.145 67.6974 110.82 66.0249Z" fill="#FCE5D0"/>
<path d="M114.503 63.9253C116.636 63.9609 116.316 65.7046 116.316 65.7046C116.316 65.7046 117.24 65.2064 117.24 66.274C117.275 67.6618 117.453 68.338 117.453 68.338L118.981 73.1777C118.199 71.7542 116.493 66.8078 115.143 65.064C114.112 63.7474 111.305 65.3132 111.305 65.3132C112.087 64.5658 113.402 63.9253 114.503 63.9253Z" fill="#DD4B39" fill-opacity="0.4"/>
<path d="M57.644 99.0866H8.20887C6.7873 99.0866 5.6145 97.9123 5.6145 96.4889V37.5938C5.6145 36.1703 6.7873 34.996 8.20887 34.996H57.644C59.0656 34.996 60.2384 36.1703 60.2384 37.5938V96.4533C60.2384 97.9123 59.1011 99.0866 57.644 99.0866Z" fill="#ECE2FD"/>
<path d="M28.6826 50.0471H50.4327C50.8947 50.0471 51.2856 50.4029 51.3211 50.83L54.0221 77.6619C54.0577 78.1957 53.6667 78.6228 53.1336 78.6228H25.7684C25.2353 78.6228 24.8444 78.1601 24.8799 77.6264L27.7941 50.7944C27.8297 50.3674 28.2206 50.0471 28.6826 50.0471Z" fill="#9E68E3"/>
<path d="M39.4455 59.3691C36.6024 59.3691 34.3279 57.056 34.3279 54.2447V52.4298H35.6428V54.2447C35.6428 56.3443 37.3487 58.088 39.4811 58.088C41.5779 58.088 43.3193 56.3799 43.3193 54.2447V52.4298H44.6343V54.2447C44.5632 57.056 42.2531 59.3691 39.4455 59.3691Z" fill="#8C5CC9"/>
<path d="M19.9085 61.4337H34.9416C35.6879 61.4337 36.2565 62.0386 36.2565 62.7503V77.2695C36.2565 78.0168 35.6524 78.5862 34.9416 78.5862H19.9085C19.1622 78.5862 18.5935 77.9812 18.5935 77.2695V62.7503C18.558 62.0386 19.1622 61.4337 19.9085 61.4337Z" fill="#8C5CC9"/>
<path d="M14.4627 61.4337H21.4994C22.2458 61.4337 22.8144 62.0386 22.8144 62.7503V77.2695C22.8144 78.0168 22.2102 78.5862 21.4994 78.5862H14.4627C13.7163 78.5862 13.1477 77.9812 13.1477 77.2695V62.7503C13.1477 62.0386 13.7519 61.4337 14.4627 61.4337Z" fill="#9E68E3"/>
<path d="M18.201 61.4337H17.7732V65.5261H18.201V61.4337Z" fill="#8C5CC9"/>
<path d="M74.0192 43.3641C77.0207 37.2426 74.4981 29.8437 68.3846 26.8382C62.2712 23.8327 54.8821 26.3587 51.8806 32.4802C48.879 38.6017 51.4017 46.0006 57.5151 49.0061C63.6285 52.0116 71.0177 49.4856 74.0192 43.3641Z" fill="#9E68E3"/>
<path d="M61.5966 42.2892C61.2767 42.2892 60.9569 42.1824 60.7081 41.9333L57.1542 38.3747C56.6566 37.8765 56.6566 37.0936 57.1542 36.5954C57.6517 36.0972 58.4336 36.0972 58.8956 36.5954L61.561 39.2643L66.8919 33.9264C67.3895 33.4282 68.1713 33.4282 68.6334 33.9264C69.1309 34.4246 69.1309 35.2075 68.6334 35.7057L62.414 41.9333C62.2363 42.1468 61.9164 42.2892 61.5966 42.2892Z" fill="#ECE2FD"/>
<path d="M79.0945 129.085C83.1272 123.419 81.8092 115.552 76.1506 111.514C70.4919 107.476 62.6355 108.795 58.6027 114.462C54.57 120.128 55.888 127.994 61.5467 132.033C67.2053 136.071 75.0617 134.751 79.0945 129.085Z" fill="#DD4B39"/>
<path d="M74.236 120.118H65.2446L64.8892 118.872C64.7115 118.232 64.1073 117.769 63.4321 117.769H61.5129C61.2286 117.769 61.0154 117.983 61.0154 118.267C61.0154 118.552 61.2286 118.766 61.5129 118.766H63.4321C63.6453 118.766 63.8585 118.908 63.9296 119.121L65.4223 124.388C65.4223 124.424 65.4578 124.459 65.4933 124.495C65.671 124.886 66.0264 125.136 66.4529 125.136H72.1747C72.7078 125.136 73.1698 124.815 73.3475 124.317L74.7335 120.794C74.8402 120.474 74.5914 120.118 74.236 120.118Z" fill="#FDCCE6"/>
<path d="M66.8466 125.917C66.349 125.917 65.9937 126.308 65.9937 126.771C65.9937 127.269 66.3846 127.625 66.8466 127.625C67.3441 127.625 67.6995 127.234 67.6995 126.771C67.6995 126.308 67.3086 125.917 66.8466 125.917Z" fill="#FDCCE6"/>
<path d="M71.5295 125.917C71.0319 125.917 70.6765 126.308 70.6765 126.771C70.6765 127.269 71.0674 127.625 71.5295 127.625C72.027 127.625 72.3824 127.234 72.3824 126.771C72.4179 126.308 72.027 125.917 71.5295 125.917Z" fill="#FDCCE6"/>
<path d="M68.4856 211.469H31.2049C30.1032 211.469 29.1792 210.579 29.1792 209.44V185.989C29.1792 184.886 30.0677 183.961 31.2049 183.961H68.4856C69.5873 183.961 70.5114 184.85 70.5114 185.989V209.44C70.5114 210.579 69.5873 211.469 68.4856 211.469Z" fill="#F9B087"/>
<path d="M35.7935 211.469H18.6991C17.5974 211.469 16.6733 210.579 16.6733 209.44V185.989C16.6733 184.886 17.5618 183.961 18.6991 183.961H35.7935C36.8952 183.961 37.8192 184.85 37.8192 185.989V209.44C37.8192 210.579 36.9307 211.469 35.7935 211.469Z" fill="#DB6E56"/>
<path d="M75.2029 238.976H37.9222C36.8205 238.976 35.8965 238.086 35.8965 236.948V213.496C35.8965 212.393 36.785 211.468 37.9222 211.468H75.2029C76.3046 211.468 77.2287 212.358 77.2287 213.496V236.948C77.2287 238.051 76.3046 238.976 75.2029 238.976Z" fill="#F9B087"/>
<path d="M42.8263 214.208L73.6033 211.468H39.6633L42.8263 214.208Z" fill="#DB6E56"/>
<path d="M42.5078 238.976H25.4134C24.3117 238.976 23.3877 238.086 23.3877 236.948V213.496C23.3877 212.393 24.2762 211.468 25.4134 211.468H42.5078C43.6095 211.468 44.5336 212.358 44.5336 213.496V236.948C44.5336 238.051 43.6095 238.976 42.5078 238.976Z" fill="#DB6E56"/>
<path d="M34.1483 211.787H33.7561V223.673H34.1483V211.787Z" fill="#F9B087"/>
<path d="M65.5361 2.64706L64.9319 0.369547C64.9319 0.369547 67.4552 -1.16066 68.7701 2.00651C70.0495 5.13809 72.4662 4.78223 72.4662 4.78223L72.4307 7.55795C72.4307 7.55795 69.6231 7.87822 68.5569 5.28044C67.4907 2.68265 66.7444 2.32679 65.5361 2.64706Z" fill="#8C5CC9"/>
<path d="M123.32 11.2252L121.152 12.1148C121.152 12.1148 119.304 9.80172 122.254 8.09359C125.204 6.38545 124.529 4.07235 124.529 4.07235L127.301 3.75208C127.301 3.75208 127.976 6.49221 125.559 7.88007C123.107 9.30351 122.858 10.0864 123.32 11.2252Z" fill="#DB6E56"/>
<path d="M156.016 53.8195L156.123 57.0934C156.123 57.0934 152.178 58.3389 151.432 53.606C150.686 48.9086 147.309 48.6239 147.309 48.6239L148.269 44.8518C148.269 44.8518 152.214 45.35 152.782 49.2289C153.387 53.1078 154.311 53.8551 156.016 53.8195Z" fill="#CE371C"/>
<path d="M86.1149 46.4896L84.5867 46.3116C84.5867 46.3116 84.2669 44.39 86.4703 44.3544C88.7093 44.3188 89.0292 42.753 89.0292 42.753L90.6995 43.4292C90.6995 43.4292 90.2375 45.2441 88.3894 45.2441C86.6125 45.2796 86.2216 45.6711 86.1149 46.4896Z" fill="#FFC100"/>
<path d="M92.7952 9.65806C93.7374 9.65806 94.5011 8.8933 94.5011 7.94993C94.5011 7.00655 93.7374 6.24179 92.7952 6.24179C91.8531 6.24179 91.0894 7.00655 91.0894 7.94993C91.0894 8.8933 91.8531 9.65806 92.7952 9.65806Z" fill="#DD4B39"/>
<path d="M112.305 30.3007C112.972 30.3007 113.513 29.759 113.513 29.0908C113.513 28.4226 112.972 27.8809 112.305 27.8809C111.638 27.8809 111.097 28.4226 111.097 29.0908C111.097 29.759 111.638 30.3007 112.305 30.3007Z" fill="#DD4B39"/>
<path d="M149.343 17.3784C149.059 17.2716 149.023 16.8801 149.308 16.7378C149.841 16.5243 150.445 16.2396 150.765 15.9193C151.014 15.6702 151.191 15.1364 151.369 14.6382C151.476 14.3535 151.902 14.3179 152.009 14.6382C152.186 15.1364 152.435 15.7058 152.684 15.9905C153.004 16.3108 153.608 16.5599 154.105 16.7734C154.39 16.8801 154.39 17.3072 154.07 17.4139C153.572 17.5563 153.039 17.7698 152.755 18.0545C152.435 18.3748 152.186 18.9797 152.009 19.5491C151.902 19.8694 151.476 19.8338 151.369 19.5491C151.227 19.0153 151.014 18.4104 150.694 18.1257C150.409 17.7342 149.841 17.5207 149.343 17.3784Z" fill="#8C5CC9"/>
<path d="M48.3667 19.9041C48.189 19.8685 48.189 19.6194 48.3667 19.5482C48.651 19.4415 48.9708 19.2991 49.1485 19.0856C49.2907 18.9433 49.3973 18.6586 49.4684 18.4095C49.5395 18.2315 49.7527 18.2315 49.8238 18.4095C49.9304 18.6942 50.037 18.9789 50.1792 19.1212C50.3569 19.2991 50.6767 19.4415 50.961 19.5482C51.1032 19.6194 51.1032 19.8329 50.961 19.9041C50.7123 19.9753 50.3924 20.082 50.2502 20.2244C50.0726 20.4023 49.9304 20.7226 49.8238 21.0429C49.7527 21.2208 49.5395 21.2208 49.4684 21.0429C49.3973 20.7582 49.2551 20.4379 49.113 20.26C48.9353 20.082 48.651 19.9753 48.3667 19.9041Z" fill="#DB6E56"/>
<path d="M115 146L114 140" stroke="white"/>
</svg>
