<svg xmlns="http://www.w3.org/2000/svg" width="24" height="24" viewBox="0 0 24 24" fill="none">
  <path fill-rule="evenodd" clip-rule="evenodd" d="M8.89998 6.99998C8.89998 5.28789 10.2879 3.89998 12 3.89998C13.7121 3.89998 15.1 5.28789 15.1 6.99998C15.1 8.71206 13.7121 10.1 12 10.1C10.2879 10.1 8.89998 8.71206 8.89998 6.99998ZM12 2.09998C9.29378 2.09998 7.09998 4.29378 7.09998 6.99998C7.09998 9.70617 9.29378 11.9 12 11.9C14.7062 11.9 16.9 9.70617 16.9 6.99998C16.9 4.29378 14.7062 2.09998 12 2.09998ZM5.89998 19C5.89998 17.2879 7.28789 15.9 8.99998 15.9H15C16.7121 15.9 18.1 17.2879 18.1 19C18.1 19.6075 17.6075 20.1 17 20.1H6.99998C6.39246 20.1 5.89998 19.6075 5.89998 19ZM8.99998 14.1C6.29378 14.1 4.09998 16.2938 4.09998 19C4.09998 20.6016 5.39835 21.9 6.99998 21.9H17C18.6016 21.9 19.9 20.6016 19.9 19C19.9 16.2938 17.7062 14.1 15 14.1H8.99998Z" fill="#DD4B39"/>
</svg>